# xmcd
# 
# Track frame offsets:
#     150
#     21612
#     41850
#     56150
#     73812
#     92850
#     112675
#     135050
#     154300
#     172500
# 
# Disc length: 2546
# 
# Revision: 2
# Processed by: cddbd v1.5.2PL0 Copyright (c) Steve Scherf et al.
# Submitted via: fre:ac v1.0.17
# 
DISCID=8009f00a
DTITLE=伍詠薇 - 不想愛失去
DYEAR=1995
DGENRE=Country
TTITLE0=失去於巴黎鐵塔 (La Tour Eiffel)
TTITLE1=不如笑笑算了吧 (金牙大狀 2 插曲)
TTITLE2=一天一天愛上你
TTITLE3=情到零時
TTITLE4=如今
TTITLE5=不想愛失去
TTITLE6=細水長流
TTITLE7=野薔薇
TTITLE8=變
TTITLE9=紅顏
EXTD=
EXTT0=
EXTT1=
EXTT2=
EXTT3=
EXTT4=
EXTT5=
EXTT6=
EXTT7=
EXTT8=
EXTT9=
PLAYORDER=
